<svg width="360" height="360" viewBox="0 0 360 360" fill="none" xmlns="http://www.w3.org/2000/svg">
<rect width="360" height="360" fill="#D9D9D9"/>
<path d="M113 167.414L111.586 166L85 192.586L86.414 194L88.414 192H109C109.53 191.999 110.038 191.788 110.413 191.413C110.788 191.038 110.999 190.53 111 190V169.414L113 167.414ZM109 190H90.414L98.207 182.207L100.586 184.586C100.961 184.961 101.47 185.172 102 185.172C102.53 185.172 103.039 184.961 103.414 184.586L105 183L109 186.997V190ZM109 184.168L106.414 181.582C106.039 181.207 105.53 180.996 105 180.996C104.47 180.996 103.961 181.207 103.586 181.582L102 183.168L99.623 180.791L109 171.414V184.168ZM89 186V183L94 178.003L95.373 179.377L96.789 177.961L95.414 176.586C95.0389 176.211 94.5303 176 94 176C93.4697 176 92.9611 176.211 92.586 176.586L89 180.172V170H105V168H89C88.4697 168.001 87.9613 168.211 87.5864 168.586C87.2114 168.961 87.0005 169.47 87 170V186H89Z" fill="black"/>
<path d="M139.322 172.781V174.324H132.467V187H130.592V172.781H139.322ZM132.027 178.572H135.904C136.946 178.572 137.825 178.748 138.541 179.1C139.257 179.445 139.801 179.93 140.172 180.555C140.543 181.18 140.729 181.912 140.729 182.752C140.729 183.377 140.624 183.95 140.416 184.471C140.208 184.985 139.898 185.434 139.488 185.818C139.078 186.196 138.574 186.489 137.975 186.697C137.376 186.899 136.686 187 135.904 187H130.592V172.781H132.477V185.467H135.904C136.601 185.467 137.164 185.34 137.594 185.086C138.03 184.826 138.349 184.487 138.551 184.07C138.753 183.654 138.854 183.208 138.854 182.732C138.854 182.257 138.753 181.821 138.551 181.424C138.349 181.027 138.03 180.711 137.594 180.477C137.164 180.236 136.601 180.115 135.904 180.115H132.027V178.572ZM144.947 184.139L149.82 176.434H151.637V187H149.82V179.295L144.947 187H143.15V176.434H144.947V184.139ZM158.844 176.434V187H157.027V176.434H158.844ZM162.389 176.434V177.898H153.551V176.434H162.389ZM170.24 185.193V179.754C170.24 179.337 170.156 178.976 169.986 178.67C169.824 178.357 169.576 178.117 169.244 177.947C168.912 177.778 168.502 177.693 168.014 177.693C167.558 177.693 167.158 177.771 166.812 177.928C166.474 178.084 166.207 178.289 166.012 178.543C165.823 178.797 165.729 179.07 165.729 179.363H163.922C163.922 178.986 164.02 178.611 164.215 178.24C164.41 177.869 164.69 177.534 165.055 177.234C165.426 176.928 165.868 176.688 166.383 176.512C166.904 176.329 167.483 176.238 168.121 176.238C168.889 176.238 169.566 176.368 170.152 176.629C170.745 176.889 171.207 177.283 171.539 177.811C171.878 178.331 172.047 178.986 172.047 179.773V184.695C172.047 185.047 172.076 185.421 172.135 185.818C172.2 186.215 172.294 186.557 172.418 186.844V187H170.533C170.442 186.792 170.37 186.515 170.318 186.17C170.266 185.818 170.24 185.493 170.24 185.193ZM170.553 180.594L170.572 181.863H168.746C168.232 181.863 167.773 181.906 167.369 181.99C166.965 182.068 166.627 182.189 166.354 182.352C166.08 182.514 165.872 182.719 165.729 182.967C165.585 183.208 165.514 183.491 165.514 183.816C165.514 184.148 165.589 184.451 165.738 184.725C165.888 184.998 166.113 185.216 166.412 185.379C166.718 185.535 167.092 185.613 167.535 185.613C168.089 185.613 168.577 185.496 169 185.262C169.423 185.027 169.758 184.741 170.006 184.402C170.26 184.064 170.396 183.735 170.416 183.416L171.188 184.285C171.142 184.559 171.018 184.861 170.816 185.193C170.615 185.525 170.344 185.844 170.006 186.15C169.674 186.45 169.277 186.701 168.814 186.902C168.359 187.098 167.844 187.195 167.271 187.195C166.555 187.195 165.927 187.055 165.387 186.775C164.853 186.495 164.436 186.121 164.137 185.652C163.844 185.177 163.697 184.646 163.697 184.061C163.697 183.494 163.808 182.996 164.029 182.566C164.251 182.13 164.57 181.769 164.986 181.482C165.403 181.189 165.904 180.968 166.49 180.818C167.076 180.669 167.73 180.594 168.453 180.594H170.553ZM177.027 181.961H178.98L175.924 187H173.971L177.027 181.961ZM178.541 176.434H182.955V187H181.148V177.898H178.541C178.027 177.898 177.607 177.986 177.281 178.162C176.956 178.331 176.718 178.553 176.568 178.826C176.419 179.1 176.344 179.383 176.344 179.676C176.344 179.962 176.412 180.239 176.549 180.506C176.686 180.766 176.9 180.981 177.193 181.15C177.486 181.32 177.864 181.404 178.326 181.404H181.637V182.889H178.326C177.721 182.889 177.184 182.807 176.715 182.645C176.246 182.482 175.849 182.257 175.523 181.971C175.198 181.678 174.951 181.336 174.781 180.945C174.612 180.548 174.527 180.118 174.527 179.656C174.527 179.194 174.615 178.768 174.791 178.377C174.973 177.986 175.234 177.645 175.572 177.352C175.917 177.059 176.337 176.834 176.832 176.678C177.333 176.515 177.903 176.434 178.541 176.434ZM192.789 176.434V187H190.982V176.434H192.789ZM199.723 176.434L194.713 182.488H192.184L191.91 180.906H193.98L197.525 176.434H199.723ZM197.779 187L193.893 182.215L195.055 180.906L200.074 187H197.779ZM207.877 185.193V179.754C207.877 179.337 207.792 178.976 207.623 178.67C207.46 178.357 207.213 178.117 206.881 177.947C206.549 177.778 206.139 177.693 205.65 177.693C205.195 177.693 204.794 177.771 204.449 177.928C204.111 178.084 203.844 178.289 203.648 178.543C203.46 178.797 203.365 179.07 203.365 179.363H201.559C201.559 178.986 201.656 178.611 201.852 178.24C202.047 177.869 202.327 177.534 202.691 177.234C203.062 176.928 203.505 176.688 204.02 176.512C204.54 176.329 205.12 176.238 205.758 176.238C206.526 176.238 207.203 176.368 207.789 176.629C208.382 176.889 208.844 177.283 209.176 177.811C209.514 178.331 209.684 178.986 209.684 179.773V184.695C209.684 185.047 209.713 185.421 209.771 185.818C209.837 186.215 209.931 186.557 210.055 186.844V187H208.17C208.079 186.792 208.007 186.515 207.955 186.17C207.903 185.818 207.877 185.493 207.877 185.193ZM208.189 180.594L208.209 181.863H206.383C205.868 181.863 205.41 181.906 205.006 181.99C204.602 182.068 204.264 182.189 203.99 182.352C203.717 182.514 203.508 182.719 203.365 182.967C203.222 183.208 203.15 183.491 203.15 183.816C203.15 184.148 203.225 184.451 203.375 184.725C203.525 184.998 203.749 185.216 204.049 185.379C204.355 185.535 204.729 185.613 205.172 185.613C205.725 185.613 206.214 185.496 206.637 185.262C207.06 185.027 207.395 184.741 207.643 184.402C207.896 184.064 208.033 183.735 208.053 183.416L208.824 184.285C208.779 184.559 208.655 184.861 208.453 185.193C208.251 185.525 207.981 185.844 207.643 186.15C207.311 186.45 206.913 186.701 206.451 186.902C205.995 187.098 205.481 187.195 204.908 187.195C204.192 187.195 203.564 187.055 203.023 186.775C202.49 186.495 202.073 186.121 201.773 185.652C201.48 185.177 201.334 184.646 201.334 184.061C201.334 183.494 201.445 182.996 201.666 182.566C201.887 182.13 202.206 181.769 202.623 181.482C203.04 181.189 203.541 180.968 204.127 180.818C204.713 180.669 205.367 180.594 206.09 180.594H208.189ZM214.332 178.465V191.062H212.516V176.434H214.176L214.332 178.465ZM221.451 181.629V181.834C221.451 182.602 221.36 183.315 221.178 183.973C220.995 184.624 220.729 185.19 220.377 185.672C220.032 186.154 219.605 186.528 219.098 186.795C218.59 187.062 218.007 187.195 217.35 187.195C216.679 187.195 216.087 187.085 215.572 186.863C215.058 186.642 214.622 186.32 214.264 185.896C213.906 185.473 213.619 184.965 213.404 184.373C213.196 183.781 213.053 183.113 212.975 182.371V181.277C213.053 180.496 213.199 179.796 213.414 179.178C213.629 178.559 213.912 178.032 214.264 177.596C214.622 177.153 215.055 176.818 215.562 176.59C216.07 176.355 216.656 176.238 217.32 176.238C217.984 176.238 218.574 176.368 219.088 176.629C219.602 176.883 220.035 177.247 220.387 177.723C220.738 178.198 221.002 178.768 221.178 179.432C221.36 180.089 221.451 180.822 221.451 181.629ZM219.635 181.834V181.629C219.635 181.102 219.579 180.607 219.469 180.145C219.358 179.676 219.186 179.266 218.951 178.914C218.723 178.556 218.43 178.276 218.072 178.074C217.714 177.866 217.288 177.762 216.793 177.762C216.337 177.762 215.94 177.84 215.602 177.996C215.27 178.152 214.986 178.364 214.752 178.631C214.518 178.891 214.326 179.191 214.176 179.529C214.033 179.861 213.925 180.206 213.854 180.564V183.094C213.984 183.549 214.166 183.979 214.4 184.383C214.635 184.78 214.947 185.102 215.338 185.35C215.729 185.59 216.22 185.711 216.812 185.711C217.301 185.711 217.721 185.61 218.072 185.408C218.43 185.2 218.723 184.917 218.951 184.559C219.186 184.201 219.358 183.79 219.469 183.328C219.579 182.859 219.635 182.361 219.635 181.834ZM227.281 176.434V187H225.465V176.434H227.281ZM230.826 176.434V177.898H221.988V176.434H230.826ZM234.557 184.139L239.43 176.434H241.246V187H239.43V179.295L234.557 187H232.76V176.434H234.557V184.139ZM251.314 181.014V182.479H245.729V181.014H251.314ZM246.109 176.434V187H244.303V176.434H246.109ZM252.779 176.434V187H250.963V176.434H252.779ZM257.652 176.434V187H255.846V176.434H257.652ZM264.586 176.434L259.576 182.488H257.047L256.773 180.906H258.844L262.389 176.434H264.586ZM262.643 187L258.756 182.215L259.918 180.906L264.938 187H262.643ZM272.74 185.193V179.754C272.74 179.337 272.656 178.976 272.486 178.67C272.324 178.357 272.076 178.117 271.744 177.947C271.412 177.778 271.002 177.693 270.514 177.693C270.058 177.693 269.658 177.771 269.312 177.928C268.974 178.084 268.707 178.289 268.512 178.543C268.323 178.797 268.229 179.07 268.229 179.363H266.422C266.422 178.986 266.52 178.611 266.715 178.24C266.91 177.869 267.19 177.534 267.555 177.234C267.926 176.928 268.368 176.688 268.883 176.512C269.404 176.329 269.983 176.238 270.621 176.238C271.389 176.238 272.066 176.368 272.652 176.629C273.245 176.889 273.707 177.283 274.039 177.811C274.378 178.331 274.547 178.986 274.547 179.773V184.695C274.547 185.047 274.576 185.421 274.635 185.818C274.7 186.215 274.794 186.557 274.918 186.844V187H273.033C272.942 186.792 272.87 186.515 272.818 186.17C272.766 185.818 272.74 185.493 272.74 185.193ZM273.053 180.594L273.072 181.863H271.246C270.732 181.863 270.273 181.906 269.869 181.99C269.465 182.068 269.127 182.189 268.854 182.352C268.58 182.514 268.372 182.719 268.229 182.967C268.085 183.208 268.014 183.491 268.014 183.816C268.014 184.148 268.089 184.451 268.238 184.725C268.388 184.998 268.613 185.216 268.912 185.379C269.218 185.535 269.592 185.613 270.035 185.613C270.589 185.613 271.077 185.496 271.5 185.262C271.923 185.027 272.258 184.741 272.506 184.402C272.76 184.064 272.896 183.735 272.916 183.416L273.688 184.285C273.642 184.559 273.518 184.861 273.316 185.193C273.115 185.525 272.844 185.844 272.506 186.15C272.174 186.45 271.777 186.701 271.314 186.902C270.859 187.098 270.344 187.195 269.771 187.195C269.055 187.195 268.427 187.055 267.887 186.775C267.353 186.495 266.936 186.121 266.637 185.652C266.344 185.177 266.197 184.646 266.197 184.061C266.197 183.494 266.308 182.996 266.529 182.566C266.751 182.13 267.07 181.769 267.486 181.482C267.903 181.189 268.404 180.968 268.99 180.818C269.576 180.669 270.23 180.594 270.953 180.594H273.053Z" fill="black"/>
</svg>
